<?xml version="1.0" encoding="utf-8"?>
<svg version="1.1" width="3300" height="2200" xmlns="http://www.w3.org/2000/svg">
  <g id="Notes">
    <rect height="2200" id="artboard" style="fill:white;opacity:1" width="3300" x="0" y="0"/>
    <line id="" style="fill:none;stroke:black;opacity:1;stroke-width:0.5;" x1="263" x2="3036" y1="292" y2="292"/>
    <text style="stroke: none; fill: black; font-family: -apple-system, &quot;SF Pro Display&quot;, &quot;SF Pro Text&quot;, Helvetica, sans-serif; font-weight: bold; white-space: pre;" transform="matrix(1 0 0 1 263 322)">Weight/Scale Variations</text>
    <text style="stroke: none; fill: black; font-family: -apple-system, &quot;SF Pro Display&quot;, &quot;SF Pro Text&quot;, Helvetica, sans-serif; text-anchor: middle; white-space: pre;" transform="matrix(1 0 0 1 559.711 322)">Ultralight</text>
    <text style="stroke: none; fill: black; font-family: -apple-system, &quot;SF Pro Display&quot;, &quot;SF Pro Text&quot;, Helvetica, sans-serif; text-anchor: middle; white-space: pre;" transform="matrix(1 0 0 1 856.422 322)">Thin</text>
    <text style="stroke: none; fill: black; font-family: -apple-system, &quot;SF Pro Display&quot;, &quot;SF Pro Text&quot;, Helvetica, sans-serif; text-anchor: middle; white-space: pre;" transform="matrix(1 0 0 1 1153.13 322)">Light</text>
    <text style="stroke: none; fill: black; font-family: -apple-system, &quot;SF Pro Display&quot;, &quot;SF Pro Text&quot;, Helvetica, sans-serif; text-anchor: middle; white-space: pre;" transform="matrix(1 0 0 1 1449.84 322)">Regular</text>
    <text style="stroke: none; fill: black; font-family: -apple-system, &quot;SF Pro Display&quot;, &quot;SF Pro Text&quot;, Helvetica, sans-serif; text-anchor: middle; white-space: pre;" transform="matrix(1 0 0 1 1746.56 322)">Medium</text>
    <text style="stroke: none; fill: black; font-family: -apple-system, &quot;SF Pro Display&quot;, &quot;SF Pro Text&quot;, Helvetica, sans-serif; text-anchor: middle; white-space: pre;" transform="matrix(1 0 0 1 2043.27 322)">Semibold</text>
    <text style="stroke: none; fill: black; font-family: -apple-system, &quot;SF Pro Display&quot;, &quot;SF Pro Text&quot;, Helvetica, sans-serif; text-anchor: middle; white-space: pre;" transform="matrix(1 0 0 1 2339.98 322)">Bold</text>
    <text style="stroke: none; fill: black; font-family: -apple-system, &quot;SF Pro Display&quot;, &quot;SF Pro Text&quot;, Helvetica, sans-serif; text-anchor: middle; white-space: pre;" transform="matrix(1 0 0 1 2636.69 322)">Heavy</text>
    <text style="stroke: none; fill: black; font-family: -apple-system, &quot;SF Pro Display&quot;, &quot;SF Pro Text&quot;, Helvetica, sans-serif; text-anchor: middle; white-space: pre;" transform="matrix(1 0 0 1 2933.4 322)">Black</text>
    <line id="" style="fill:none;stroke:black;opacity:1;stroke-width:0.5;" x1="263" x2="3036" y1="1903" y2="1903"/>
    <g id="" transform="matrix(1 0 0 1 263 1933)">
      <path d="M 9.24805 0.830078 C 13.5547 0.830078 17.1387 -2.74414 17.1387 -7.05078 C 17.1387 -11.3574 13.5449 -14.9316 9.23828 -14.9316 C 4.94141 -14.9316 1.36719 -11.3574 1.36719 -7.05078 C 1.36719 -2.74414 4.95117 0.830078 9.24805 0.830078 Z M 9.24805 -0.654297 C 5.70312 -0.654297 2.87109 -3.49609 2.87109 -7.05078 C 2.87109 -10.6055 5.69336 -13.4473 9.23828 -13.4473 C 12.793 -13.4473 15.6348 -10.6055 15.6445 -7.05078 C 15.6543 -3.49609 12.8027 -0.654297 9.24805 -0.654297 Z M 9.22852 -3.42773 C 9.69727 -3.42773 9.9707 -3.74023 9.9707 -4.25781 L 9.9707 -6.31836 L 12.1973 -6.31836 C 12.6953 -6.31836 13.0371 -6.57227 13.0371 -7.04102 C 13.0371 -7.51953 12.7148 -7.7832 12.1973 -7.7832 L 9.9707 -7.7832 L 9.9707 -10.0098 C 9.9707 -10.5273 9.69727 -10.8496 9.22852 -10.8496 C 8.75977 -10.8496 8.50586 -10.5078 8.50586 -10.0098 L 8.50586 -7.7832 L 6.29883 -7.7832 C 5.78125 -7.7832 5.44922 -7.51953 5.44922 -7.04102 C 5.44922 -6.57227 5.80078 -6.31836 6.29883 -6.31836 L 8.50586 -6.31836 L 8.50586 -4.25781 C 8.50586 -3.75977 8.75977 -3.42773 9.22852 -3.42773 Z"/>
    </g>
    <g id="" transform="matrix(1 0 0 1 281.506 1933)">
      <path d="M 11.709 2.91016 C 17.1582 2.91016 21.6699 -1.60156 21.6699 -7.05078 C 21.6699 -12.4902 17.1484 -17.0117 11.6992 -17.0117 C 6.25977 -17.0117 1.74805 -12.4902 1.74805 -7.05078 C 1.74805 -1.60156 6.26953 2.91016 11.709 2.91016 Z M 11.709 1.25 C 7.09961 1.25 3.41797 -2.44141 3.41797 -7.05078 C 3.41797 -11.6504 7.08984 -15.3516 11.6992 -15.3516 C 16.3086 -15.3516 20 -11.6504 20.0098 -7.05078 C 20.0195 -2.44141 16.3184 1.25 11.709 1.25 Z M 11.6895 -2.41211 C 12.207 -2.41211 12.5195 -2.77344 12.5195 -3.33984 L 12.5195 -6.23047 L 15.5762 -6.23047 C 16.123 -6.23047 16.5039 -6.51367 16.5039 -7.03125 C 16.5039 -7.55859 16.1426 -7.86133 15.5762 -7.86133 L 12.5195 -7.86133 L 12.5195 -10.9277 C 12.5195 -11.5039 12.207 -11.8555 11.6895 -11.8555 C 11.1719 -11.8555 10.8789 -11.4844 10.8789 -10.9277 L 10.8789 -7.86133 L 7.83203 -7.86133 C 7.26562 -7.86133 6.89453 -7.55859 6.89453 -7.03125 C 6.89453 -6.51367 7.28516 -6.23047 7.83203 -6.23047 L 10.8789 -6.23047 L 10.8789 -3.33984 C 10.8789 -2.79297 11.1719 -2.41211 11.6895 -2.41211 Z"/>
    </g>
    <g id="" transform="matrix(1 0 0 1 304.924 1933)">
      <path d="M 14.9707 5.67383 C 21.9336 5.67383 27.6953 -0.078125 27.6953 -7.04102 C 27.6953 -14.0039 21.9238 -19.7559 14.9609 -19.7559 C 8.00781 -19.7559 2.25586 -14.0039 2.25586 -7.04102 C 2.25586 -0.078125 8.01758 5.67383 14.9707 5.67383 Z M 14.9707 3.85742 C 8.93555 3.85742 4.08203 -1.00586 4.08203 -7.04102 C 4.08203 -13.0762 8.92578 -17.9395 14.9609 -17.9395 C 21.0059 -17.9395 25.8594 -13.0762 25.8691 -7.04102 C 25.8789 -1.00586 21.0156 3.85742 14.9707 3.85742 Z M 14.9512 -1.06445 C 15.5176 -1.06445 15.8691 -1.45508 15.8691 -2.06055 L 15.8691 -6.13281 L 20.1074 -6.13281 C 20.6934 -6.13281 21.1133 -6.46484 21.1133 -7.02148 C 21.1133 -7.59766 20.7227 -7.93945 20.1074 -7.93945 L 15.8691 -7.93945 L 15.8691 -12.1875 C 15.8691 -12.8027 15.5176 -13.1934 14.9512 -13.1934 C 14.3848 -13.1934 14.0625 -12.7832 14.0625 -12.1875 L 14.0625 -7.93945 L 9.83398 -7.93945 C 9.21875 -7.93945 8.80859 -7.59766 8.80859 -7.02148 C 8.80859 -6.46484 9.23828 -6.13281 9.83398 -6.13281 L 14.0625 -6.13281 L 14.0625 -2.06055 C 14.0625 -1.47461 14.3848 -1.06445 14.9512 -1.06445 Z"/>
    </g>
    <text style="stroke: none; fill: black; font-family: -apple-system, &quot;SF Pro Display&quot;, &quot;SF Pro Text&quot;, Helvetica, sans-serif; font-weight: bold; white-space: pre;" transform="matrix(1 0 0 1 263 1953)">Design Variations</text>
    <text style="stroke: none; fill: black; font-family: -apple-system, &quot;SF Pro Display&quot;, &quot;SF Pro Text&quot;, Helvetica, sans-serif; white-space: pre;" transform="matrix(1 0 0 1 263 1971)">Symbols are supported in up to nine weights and three scales.</text>
    <text style="stroke: none; fill: black; font-family: -apple-system, &quot;SF Pro Display&quot;, &quot;SF Pro Text&quot;, Helvetica, sans-serif; white-space: pre;" transform="matrix(1 0 0 1 263 1989)">For optimal layout with text and other symbols, vertically align</text>
    <text style="stroke: none; fill: black; font-family: -apple-system, &quot;SF Pro Display&quot;, &quot;SF Pro Text&quot;, Helvetica, sans-serif; white-space: pre;" transform="matrix(1 0 0 1 263 2007)">symbols with the adjacent text.</text>
    <rect height="14" id="" style="fill:#00AEEF;stroke:none;opacity:0.4;" width="3" x="776" y="1919"/>
    <g id="" transform="matrix(1 0 0 1 779 1933)">
      <path d="M 10.5273 0 L 12.373 0 L 7.17773 -14.0918 L 5.43945 -14.0918 L 0.244141 0 L 2.08984 0 L 3.50586 -4.0332 L 9.11133 -4.0332 Z M 6.2793 -11.9531 L 6.33789 -11.9531 L 8.59375 -5.52734 L 4.02344 -5.52734 Z"/>
    </g>
    <rect height="14" id="" style="fill:#00AEEF;stroke:none;opacity:0.4;" width="3" x="791.617" y="1919"/>
    <text style="stroke: none; fill: black; font-family: -apple-system, &quot;SF Pro Display&quot;, &quot;SF Pro Text&quot;, Helvetica, sans-serif; font-weight: bold; white-space: pre;" transform="matrix(1 0 0 1 776 1953)">Margins</text>
    <text style="stroke: none; fill: black; font-family: -apple-system, &quot;SF Pro Display&quot;, &quot;SF Pro Text&quot;, Helvetica, sans-serif; white-space: pre;" transform="matrix(1 0 0 1 776 1971)">Leading and trailing margins on the left and right side of each symbol</text>
    <text style="stroke: none; fill: black; font-family: -apple-system, &quot;SF Pro Display&quot;, &quot;SF Pro Text&quot;, Helvetica, sans-serif; white-space: pre;" transform="matrix(1 0 0 1 776 1989)">can be adjusted by modifying the width of the blue rectangles.</text>
    <text style="stroke: none; fill: black; font-family: -apple-system, &quot;SF Pro Display&quot;, &quot;SF Pro Text&quot;, Helvetica, sans-serif; white-space: pre;" transform="matrix(1 0 0 1 776 2007)">Modifications are automatically applied proportionally to all</text>
    <text style="stroke: none; fill: black; font-family: -apple-system, &quot;SF Pro Display&quot;, &quot;SF Pro Text&quot;, Helvetica, sans-serif; white-space: pre;" transform="matrix(1 0 0 1 776 2025)">scales and weights.</text>
    <g id="" transform="matrix(1 0 0 1 1289 1933)">
      <path d="M 2.83203 3.11523 L 4.375 4.6582 C 5.22461 5.48828 6.19141 5.41992 7.06055 4.46289 L 17.2754 -6.66016 C 17.7051 -6.36719 18.0957 -6.37695 18.5645 -6.47461 L 19.6094 -6.68945 L 20.3027 -5.99609 L 20.2539 -5.47852 C 20.1855 -4.95117 20.3516 -4.53125 20.8496 -4.0332 L 21.6602 -3.22266 C 22.168 -2.71484 22.8223 -2.68555 23.3008 -3.16406 L 26.5527 -6.41602 C 27.0312 -6.89453 27.0117 -7.54883 26.5039 -8.05664 L 25.6836 -8.87695 C 25.1855 -9.375 24.7754 -9.55078 24.2383 -9.47266 L 23.7109 -9.41406 L 23.0566 -10.0781 L 23.3398 -11.2207 C 23.4863 -11.7871 23.3398 -12.2559 22.7148 -12.8613 L 20.3027 -15.2539 C 16.7578 -18.7793 12.2266 -18.6719 9.11133 -15.5371 C 8.69141 -15.1074 8.64258 -14.5215 8.91602 -14.0918 C 9.15039 -13.7207 9.62891 -13.4961 10.2734 -13.6621 C 11.7871 -14.043 13.3008 -13.9258 14.7852 -12.9199 L 14.1602 -11.3379 C 13.9258 -10.752 13.9453 -10.2734 14.1797 -9.83398 L 3.01758 0.439453 C 2.08008 1.30859 1.97266 2.25586 2.83203 3.11523 Z M 10.6738 -15.1465 C 13.3398 -17.1387 16.6504 -16.8262 19.0527 -14.4141 L 21.6797 -11.8066 C 21.9141 -11.5723 21.9434 -11.3867 21.8848 -11.0938 L 21.5039 -9.53125 L 23.0762 -7.95898 L 24.043 -8.04688 C 24.3262 -8.07617 24.4141 -8.05664 24.6387 -7.83203 L 25.2637 -7.20703 L 22.5098 -4.46289 L 21.8848 -5.07812 C 21.6602 -5.30273 21.6406 -5.40039 21.6699 -5.68359 L 21.7578 -6.64062 L 20.1953 -8.20312 L 18.5742 -7.89062 C 18.291 -7.83203 18.1445 -7.83203 17.9102 -8.07617 L 15.7324 -10.2539 C 15.5078 -10.4883 15.4785 -10.625 15.6055 -10.9473 L 16.5527 -13.2227 C 14.9512 -14.7559 12.8418 -15.6055 10.8008 -14.9512 C 10.7129 -14.9219 10.6445 -14.9414 10.6152 -14.9805 C 10.5859 -15.0293 10.5859 -15.0781 10.6738 -15.1465 Z M 4.10156 2.41211 C 3.61328 1.91406 3.78906 1.61133 4.12109 1.30859 L 15.0781 -8.80859 L 16.3086 -7.57812 L 6.15234 3.34961 C 5.84961 3.68164 5.46875 3.7793 5.06836 3.37891 Z"/>
    </g>
    <text style="stroke: none; fill: black; font-family: -apple-system, &quot;SF Pro Display&quot;, &quot;SF Pro Text&quot;, Helvetica, sans-serif; font-weight: bold; white-space: pre;" transform="matrix(1 0 0 1 1289 1953)">Exporting</text>
    <text style="stroke: none; fill: black; font-family: -apple-system, &quot;SF Pro Display&quot;, &quot;SF Pro Text&quot;, Helvetica, sans-serif; white-space: pre;" transform="matrix(1 0 0 1 1289 1971)">Symbols should be outlined when exporting to ensure the</text>
    <text style="stroke: none; fill: black; font-family: -apple-system, &quot;SF Pro Display&quot;, &quot;SF Pro Text&quot;, Helvetica, sans-serif; white-space: pre;" transform="matrix(1 0 0 1 1289 1989)">design is preserved when submitting to Xcode.</text>
    <text id="template-version" style="stroke: none; fill: black; font-family: -apple-system, &quot;SF Pro Display&quot;, &quot;SF Pro Text&quot;, Helvetica, sans-serif; text-anchor: end; white-space: pre;" transform="matrix(1 0 0 1 3036 1933)">Template v.1.0</text>
    <text style="stroke: none; fill: black; font-family: -apple-system, &quot;SF Pro Display&quot;, &quot;SF Pro Text&quot;, Helvetica, sans-serif; text-anchor: end; white-space: pre;" transform="matrix(1 0 0 1 3036 1951)">Generated from square.and.arrow.up</text>
    <text style="stroke: none; fill: black; font-family: -apple-system, &quot;SF Pro Display&quot;, &quot;SF Pro Text&quot;, Helvetica, sans-serif; text-anchor: end; white-space: pre;" transform="matrix(1 0 0 1 3036 1969)">Typeset at 100 points</text>
    <text style="stroke: none; fill: black; font-family: -apple-system, &quot;SF Pro Display&quot;, &quot;SF Pro Text&quot;, Helvetica, sans-serif; white-space: pre;" transform="matrix(1 0 0 1 263 726)">Small</text>
    <text style="stroke: none; fill: black; font-family: -apple-system, &quot;SF Pro Display&quot;, &quot;SF Pro Text&quot;, Helvetica, sans-serif; white-space: pre;" transform="matrix(1 0 0 1 263 1156)">Medium</text>
    <text style="stroke: none; fill: black; font-family: -apple-system, &quot;SF Pro Display&quot;, &quot;SF Pro Text&quot;, Helvetica, sans-serif; white-space: pre;" transform="matrix(1 0 0 1 263 1586)">Large</text>
  </g>
  <g id="Guides">
    <g id="H-reference" style="fill:#27AAE1;stroke:none;" transform="matrix(1 0 0 1 339 696)">
      <path d="M 54.9316 0 L 57.666 0 L 30.5664 -70.459 L 28.0762 -70.459 L 0.976562 0 L 3.66211 0 L 12.9395 -24.4629 L 45.7031 -24.4629 Z M 29.1992 -67.0898 L 29.4434 -67.0898 L 44.8242 -26.709 L 13.8184 -26.709 Z"/>
    </g>
    <line id="Baseline-S" style="fill:none;stroke:#27AAE1;opacity:1;stroke-width:0.577;" x1="263" x2="3036" y1="696" y2="696"/>
    <line id="Capline-S" style="fill:none;stroke:#27AAE1;opacity:1;stroke-width:0.577;" x1="263" x2="3036" y1="625.541" y2="625.541"/>
    <g id="H-reference" style="fill:#27AAE1;stroke:none;" transform="matrix(1 0 0 1 339 1126)">
      <path d="M 54.9316 0 L 57.666 0 L 30.5664 -70.459 L 28.0762 -70.459 L 0.976562 0 L 3.66211 0 L 12.9395 -24.4629 L 45.7031 -24.4629 Z M 29.1992 -67.0898 L 29.4434 -67.0898 L 44.8242 -26.709 L 13.8184 -26.709 Z"/>
    </g>
    <line id="Baseline-M" style="fill:none;stroke:#27AAE1;opacity:1;stroke-width:0.577;" x1="263" x2="3036" y1="1126" y2="1126"/>
    <line id="Capline-M" style="fill:none;stroke:#27AAE1;opacity:1;stroke-width:0.577;" x1="263" x2="3036" y1="1055.54" y2="1055.54"/>
    <g id="H-reference" style="fill:#27AAE1;stroke:none;" transform="matrix(1 0 0 1 339 1556)">
      <path d="M 54.9316 0 L 57.666 0 L 30.5664 -70.459 L 28.0762 -70.459 L 0.976562 0 L 3.66211 0 L 12.9395 -24.4629 L 45.7031 -24.4629 Z M 29.1992 -67.0898 L 29.4434 -67.0898 L 44.8242 -26.709 L 13.8184 -26.709 Z"/>
    </g>
    <line id="Baseline-L" style="fill:none;stroke:#27AAE1;opacity:1;stroke-width:0.577;" x1="263" x2="3036" y1="1556" y2="1556"/>
    <line id="Capline-L" style="fill:none;stroke:#27AAE1;opacity:1;stroke-width:0.577;" x1="263" x2="3036" y1="1485.54" y2="1485.54"/>
    <rect height="119.336" id="left-margin" style="fill:#00AEEF;stroke:none;opacity:0.4;" width="12.4512" x="1394.06" y="1030.79"/>
    <rect height="119.336" id="right-margin" style="fill:#00AEEF;stroke:none;opacity:0.4;" width="12.4512" x="1493.18" y="1030.79"/>
  </g>
  <g id="Symbols" style="">
    <g id="Regular-M" transform="matrix(1.369437, 0, 0, 1.369437, 1375.807007, 1138.919922)" style="">
      <path d="M 53.755 -49.617 C 45.827 -49.448 39.517 -42.908 39.647 -34.972 C 39.479 -27.013 45.797 -20.419 53.755 -20.251 C 61.745 -20.373 68.109 -26.982 67.94 -34.972 C 68.07 -42.931 61.714 -49.494 53.755 -49.617 M 53.755 -24.544 C 45.789 -24.544 40.805 -33.17 44.792 -40.071 C 46.64 -43.276 50.06 -45.246 53.755 -45.246 C 61.722 -45.246 66.706 -36.62 62.719 -29.72 C 60.871 -26.515 57.451 -24.544 53.755 -24.544 M 53.755 -53.527 C 54.998 -53.435 56.056 -54.424 56.056 -55.674 L 56.056 -66.638 C 56.056 -68.294 54.269 -69.322 52.835 -68.494 C 52.168 -68.11 51.762 -67.405 51.762 -66.638 L 51.762 -55.674 C 51.762 -54.478 52.552 -53.527 53.748 -53.489 M 60.656 -52.224 L 60.656 -52.17 C 61.484 -51.625 63.409 -52.454 63.723 -53.374 L 67.403 -63.341 C 67.84 -64.461 67.342 -65.733 66.253 -66.255 C 65.226 -66.531 64.145 -66.009 63.723 -65.028 L 59.506 -55.06 C 59.023 -53.941 59.713 -52.446 60.664 -52.17 M 66.483 -48.006 C 67.296 -47.155 68.661 -47.155 69.474 -48.006 L 77.141 -55.674 C 77.969 -56.556 77.969 -57.936 77.141 -58.817 C 76.328 -59.669 74.963 -59.669 74.151 -58.817 L 66.483 -51.15 C 65.655 -50.268 65.655 -48.888 66.483 -48.006 M 70.394 -42.103 C 70.708 -41.274 71.927 -40.4 73.162 -40.684 L 73.231 -40.722 L 82.815 -44.863 C 84.003 -45.415 84.486 -46.841 83.888 -48.006 C 83.459 -49.103 82.232 -49.647 81.128 -49.233 L 71.39 -45.016 C 70.302 -44.495 69.957 -43.168 70.401 -42.041 M 84.272 -37.195 L 73.844 -37.195 C 72.134 -37.195 71.061 -35.34 71.919 -33.86 C 72.318 -33.17 73.047 -32.748 73.844 -32.748 L 84.272 -32.748 C 85.981 -32.748 87.055 -34.604 86.196 -36.084 C 85.797 -36.774 85.069 -37.195 84.272 -37.195 M 82.738 -25.004 L 73.154 -28.991 C 72.05 -29.459 70.785 -28.892 70.394 -27.765 C 70.018 -26.722 70.44 -25.564 71.39 -25.004 L 81.128 -20.787 L 81.971 -20.787 C 82.853 -20.795 83.651 -21.339 83.965 -22.167 C 84.387 -23.287 83.842 -24.544 82.738 -25.004 M 69.474 -21.861 C 68.661 -22.712 67.296 -22.712 66.483 -21.861 C 65.655 -20.979 65.655 -19.599 66.483 -18.717 L 74.151 -11.05 C 74.963 -10.199 76.328 -10.199 77.141 -11.05 C 77.969 -11.931 77.969 -13.312 77.141 -14.193 L 69.474 -21.861 M 63.723 -16.494 C 63.186 -17.674 61.714 -18.073 60.656 -17.337 C 59.537 -16.846 59.023 -15.543 59.506 -14.423 L 63.723 -4.839 C 64.037 -4.011 64.835 -3.467 65.717 -3.459 L 66.56 -3.459 C 67.649 -3.98 68.147 -5.253 67.71 -6.373 L 63.723 -16.494 M 54.062 -16.494 C 52.843 -16.494 51.869 -15.489 51.915 -14.27 L 51.915 -3.306 C 51.915 -1.649 53.702 -0.622 55.136 -1.45 C 55.803 -1.833 56.209 -2.539 56.209 -3.306 L 56.209 -14.04 C 56.255 -15.259 55.373 -16.425 54.154 -16.425 M 46.931 -17.337 C 45.827 -17.751 44.601 -17.207 44.171 -16.11 L 40.184 -6.526 C 39.701 -5.406 40.215 -4.103 41.334 -3.612 L 42.178 -3.612 C 43.059 -3.62 43.857 -4.164 44.171 -4.992 L 48.388 -14.807 C 48.603 -15.895 47.982 -16.977 46.931 -17.337 M 41.104 -21.707 C 40.284 -22.612 38.858 -22.612 38.037 -21.707 L 30.37 -14.04 C 29.542 -13.158 29.542 -11.778 30.37 -10.896 C 31.183 -10.045 32.547 -10.045 33.36 -10.896 L 41.028 -18.564 C 41.856 -19.445 41.856 -20.826 41.028 -21.707 M 37.194 -27.765 C 36.765 -28.861 35.538 -29.405 34.434 -28.991 L 24.849 -25.004 C 23.73 -24.514 23.216 -23.21 23.699 -22.091 C 23.906 -21.286 24.566 -20.688 25.386 -20.557 L 26.153 -20.557 L 36.044 -25.004 C 37.133 -25.526 37.593 -26.599 37.156 -27.719 M 35.814 -34.895 C 35.86 -36.114 34.886 -37.119 33.667 -37.119 L 23.316 -37.119 C 21.606 -37.119 20.533 -35.263 21.391 -33.783 C 21.79 -33.093 22.519 -32.672 23.316 -32.672 L 33.744 -32.672 C 34.963 -32.672 35.936 -33.676 35.89 -34.895 M 24.773 -44.939 L 34.357 -40.876 L 34.372 -40.822 C 35.254 -40.83 36.88 -40.891 37.194 -41.719 C 37.899 -42.915 37.347 -44.464 36.044 -44.939 L 26.46 -49.08 C 25.378 -49.617 24.075 -49.118 23.623 -48.006 C 23.14 -46.887 23.653 -45.584 24.773 -45.093 M 38.037 -48.006 C 38.812 -47.347 39.946 -47.347 40.721 -48.006 C 41.549 -48.888 41.549 -50.268 40.721 -51.15 L 33.053 -58.817 C 32.241 -59.669 30.876 -59.669 30.063 -58.817 C 29.235 -57.936 29.235 -56.556 30.063 -55.674 L 37.984 -47.991 M 44.233 -53.535 C 44.547 -52.707 45.873 -51.863 46.977 -52.093 L 46.931 -52.032 C 48.258 -52.385 48.956 -53.811 48.388 -55.06 L 44.018 -65.028 C 43.588 -66.124 42.362 -66.669 41.258 -66.255 C 40.169 -65.733 39.67 -64.461 40.107 -63.341 L 44.194 -53.443" style=""/>
    </g>
  </g>
</svg>