<?xml version="1.0" encoding="utf-8"?>
<svg version="1.1" width="3300" height="2200" xmlns="http://www.w3.org/2000/svg">
  <g id="Notes">
    <rect height="2200" id="artboard" style="fill:white;opacity:1" width="3300" x="0" y="0"/>
    <line id="" style="fill:none;stroke:black;opacity:1;stroke-width:0.5;" x1="263" x2="3036" y1="292" y2="292"/>
    <text style="stroke: none; fill: black; font-family: -apple-system, &quot;SF Pro Display&quot;, &quot;SF Pro Text&quot;, Helvetica, sans-serif; font-weight: bold; white-space: pre;" transform="matrix(1 0 0 1 263 322)">Weight/Scale Variations</text>
    <text style="stroke: none; fill: black; font-family: -apple-system, &quot;SF Pro Display&quot;, &quot;SF Pro Text&quot;, Helvetica, sans-serif; text-anchor: middle; white-space: pre;" transform="matrix(1 0 0 1 559.711 322)">Ultralight</text>
    <text style="stroke: none; fill: black; font-family: -apple-system, &quot;SF Pro Display&quot;, &quot;SF Pro Text&quot;, Helvetica, sans-serif; text-anchor: middle; white-space: pre;" transform="matrix(1 0 0 1 856.422 322)">Thin</text>
    <text style="stroke: none; fill: black; font-family: -apple-system, &quot;SF Pro Display&quot;, &quot;SF Pro Text&quot;, Helvetica, sans-serif; text-anchor: middle; white-space: pre;" transform="matrix(1 0 0 1 1153.13 322)">Light</text>
    <text style="stroke: none; fill: black; font-family: -apple-system, &quot;SF Pro Display&quot;, &quot;SF Pro Text&quot;, Helvetica, sans-serif; text-anchor: middle; white-space: pre;" transform="matrix(1 0 0 1 1449.84 322)">Regular</text>
    <text style="stroke: none; fill: black; font-family: -apple-system, &quot;SF Pro Display&quot;, &quot;SF Pro Text&quot;, Helvetica, sans-serif; text-anchor: middle; white-space: pre;" transform="matrix(1 0 0 1 1746.56 322)">Medium</text>
    <text style="stroke: none; fill: black; font-family: -apple-system, &quot;SF Pro Display&quot;, &quot;SF Pro Text&quot;, Helvetica, sans-serif; text-anchor: middle; white-space: pre;" transform="matrix(1 0 0 1 2043.27 322)">Semibold</text>
    <text style="stroke: none; fill: black; font-family: -apple-system, &quot;SF Pro Display&quot;, &quot;SF Pro Text&quot;, Helvetica, sans-serif; text-anchor: middle; white-space: pre;" transform="matrix(1 0 0 1 2339.98 322)">Bold</text>
    <text style="stroke: none; fill: black; font-family: -apple-system, &quot;SF Pro Display&quot;, &quot;SF Pro Text&quot;, Helvetica, sans-serif; text-anchor: middle; white-space: pre;" transform="matrix(1 0 0 1 2636.69 322)">Heavy</text>
    <text style="stroke: none; fill: black; font-family: -apple-system, &quot;SF Pro Display&quot;, &quot;SF Pro Text&quot;, Helvetica, sans-serif; text-anchor: middle; white-space: pre;" transform="matrix(1 0 0 1 2933.4 322)">Black</text>
    <line id="" style="fill:none;stroke:black;opacity:1;stroke-width:0.5;" x1="263" x2="3036" y1="1903" y2="1903"/>
    <g id="" transform="matrix(1 0 0 1 263 1933)">
      <path d="M 9.24805 0.830078 C 13.5547 0.830078 17.1387 -2.74414 17.1387 -7.05078 C 17.1387 -11.3574 13.5449 -14.9316 9.23828 -14.9316 C 4.94141 -14.9316 1.36719 -11.3574 1.36719 -7.05078 C 1.36719 -2.74414 4.95117 0.830078 9.24805 0.830078 Z M 9.24805 -0.654297 C 5.70312 -0.654297 2.87109 -3.49609 2.87109 -7.05078 C 2.87109 -10.6055 5.69336 -13.4473 9.23828 -13.4473 C 12.793 -13.4473 15.6348 -10.6055 15.6445 -7.05078 C 15.6543 -3.49609 12.8027 -0.654297 9.24805 -0.654297 Z M 9.22852 -3.42773 C 9.69727 -3.42773 9.9707 -3.74023 9.9707 -4.25781 L 9.9707 -6.31836 L 12.1973 -6.31836 C 12.6953 -6.31836 13.0371 -6.57227 13.0371 -7.04102 C 13.0371 -7.51953 12.7148 -7.7832 12.1973 -7.7832 L 9.9707 -7.7832 L 9.9707 -10.0098 C 9.9707 -10.5273 9.69727 -10.8496 9.22852 -10.8496 C 8.75977 -10.8496 8.50586 -10.5078 8.50586 -10.0098 L 8.50586 -7.7832 L 6.29883 -7.7832 C 5.78125 -7.7832 5.44922 -7.51953 5.44922 -7.04102 C 5.44922 -6.57227 5.80078 -6.31836 6.29883 -6.31836 L 8.50586 -6.31836 L 8.50586 -4.25781 C 8.50586 -3.75977 8.75977 -3.42773 9.22852 -3.42773 Z"/>
    </g>
    <g id="" transform="matrix(1 0 0 1 281.506 1933)">
      <path d="M 11.709 2.91016 C 17.1582 2.91016 21.6699 -1.60156 21.6699 -7.05078 C 21.6699 -12.4902 17.1484 -17.0117 11.6992 -17.0117 C 6.25977 -17.0117 1.74805 -12.4902 1.74805 -7.05078 C 1.74805 -1.60156 6.26953 2.91016 11.709 2.91016 Z M 11.709 1.25 C 7.09961 1.25 3.41797 -2.44141 3.41797 -7.05078 C 3.41797 -11.6504 7.08984 -15.3516 11.6992 -15.3516 C 16.3086 -15.3516 20 -11.6504 20.0098 -7.05078 C 20.0195 -2.44141 16.3184 1.25 11.709 1.25 Z M 11.6895 -2.41211 C 12.207 -2.41211 12.5195 -2.77344 12.5195 -3.33984 L 12.5195 -6.23047 L 15.5762 -6.23047 C 16.123 -6.23047 16.5039 -6.51367 16.5039 -7.03125 C 16.5039 -7.55859 16.1426 -7.86133 15.5762 -7.86133 L 12.5195 -7.86133 L 12.5195 -10.9277 C 12.5195 -11.5039 12.207 -11.8555 11.6895 -11.8555 C 11.1719 -11.8555 10.8789 -11.4844 10.8789 -10.9277 L 10.8789 -7.86133 L 7.83203 -7.86133 C 7.26562 -7.86133 6.89453 -7.55859 6.89453 -7.03125 C 6.89453 -6.51367 7.28516 -6.23047 7.83203 -6.23047 L 10.8789 -6.23047 L 10.8789 -3.33984 C 10.8789 -2.79297 11.1719 -2.41211 11.6895 -2.41211 Z"/>
    </g>
    <g id="" transform="matrix(1 0 0 1 304.924 1933)">
      <path d="M 14.9707 5.67383 C 21.9336 5.67383 27.6953 -0.078125 27.6953 -7.04102 C 27.6953 -14.0039 21.9238 -19.7559 14.9609 -19.7559 C 8.00781 -19.7559 2.25586 -14.0039 2.25586 -7.04102 C 2.25586 -0.078125 8.01758 5.67383 14.9707 5.67383 Z M 14.9707 3.85742 C 8.93555 3.85742 4.08203 -1.00586 4.08203 -7.04102 C 4.08203 -13.0762 8.92578 -17.9395 14.9609 -17.9395 C 21.0059 -17.9395 25.8594 -13.0762 25.8691 -7.04102 C 25.8789 -1.00586 21.0156 3.85742 14.9707 3.85742 Z M 14.9512 -1.06445 C 15.5176 -1.06445 15.8691 -1.45508 15.8691 -2.06055 L 15.8691 -6.13281 L 20.1074 -6.13281 C 20.6934 -6.13281 21.1133 -6.46484 21.1133 -7.02148 C 21.1133 -7.59766 20.7227 -7.93945 20.1074 -7.93945 L 15.8691 -7.93945 L 15.8691 -12.1875 C 15.8691 -12.8027 15.5176 -13.1934 14.9512 -13.1934 C 14.3848 -13.1934 14.0625 -12.7832 14.0625 -12.1875 L 14.0625 -7.93945 L 9.83398 -7.93945 C 9.21875 -7.93945 8.80859 -7.59766 8.80859 -7.02148 C 8.80859 -6.46484 9.23828 -6.13281 9.83398 -6.13281 L 14.0625 -6.13281 L 14.0625 -2.06055 C 14.0625 -1.47461 14.3848 -1.06445 14.9512 -1.06445 Z"/>
    </g>
    <text style="stroke: none; fill: black; font-family: -apple-system, &quot;SF Pro Display&quot;, &quot;SF Pro Text&quot;, Helvetica, sans-serif; font-weight: bold; white-space: pre;" transform="matrix(1 0 0 1 263 1953)">Design Variations</text>
    <text style="stroke: none; fill: black; font-family: -apple-system, &quot;SF Pro Display&quot;, &quot;SF Pro Text&quot;, Helvetica, sans-serif; white-space: pre;" transform="matrix(1 0 0 1 263 1971)">Symbols are supported in up to nine weights and three scales.</text>
    <text style="stroke: none; fill: black; font-family: -apple-system, &quot;SF Pro Display&quot;, &quot;SF Pro Text&quot;, Helvetica, sans-serif; white-space: pre;" transform="matrix(1 0 0 1 263 1989)">For optimal layout with text and other symbols, vertically align</text>
    <text style="stroke: none; fill: black; font-family: -apple-system, &quot;SF Pro Display&quot;, &quot;SF Pro Text&quot;, Helvetica, sans-serif; white-space: pre;" transform="matrix(1 0 0 1 263 2007)">symbols with the adjacent text.</text>
    <rect height="14" id="" style="fill:#00AEEF;stroke:none;opacity:0.4;" width="3" x="776" y="1919"/>
    <g id="" transform="matrix(1 0 0 1 779 1933)">
      <path d="M 10.5273 0 L 12.373 0 L 7.17773 -14.0918 L 5.43945 -14.0918 L 0.244141 0 L 2.08984 0 L 3.50586 -4.0332 L 9.11133 -4.0332 Z M 6.2793 -11.9531 L 6.33789 -11.9531 L 8.59375 -5.52734 L 4.02344 -5.52734 Z"/>
    </g>
    <rect height="14" id="" style="fill:#00AEEF;stroke:none;opacity:0.4;" width="3" x="791.617" y="1919"/>
    <text style="stroke: none; fill: black; font-family: -apple-system, &quot;SF Pro Display&quot;, &quot;SF Pro Text&quot;, Helvetica, sans-serif; font-weight: bold; white-space: pre;" transform="matrix(1 0 0 1 776 1953)">Margins</text>
    <text style="stroke: none; fill: black; font-family: -apple-system, &quot;SF Pro Display&quot;, &quot;SF Pro Text&quot;, Helvetica, sans-serif; white-space: pre;" transform="matrix(1 0 0 1 776 1971)">Leading and trailing margins on the left and right side of each symbol</text>
    <text style="stroke: none; fill: black; font-family: -apple-system, &quot;SF Pro Display&quot;, &quot;SF Pro Text&quot;, Helvetica, sans-serif; white-space: pre;" transform="matrix(1 0 0 1 776 1989)">can be adjusted by modifying the width of the blue rectangles.</text>
    <text style="stroke: none; fill: black; font-family: -apple-system, &quot;SF Pro Display&quot;, &quot;SF Pro Text&quot;, Helvetica, sans-serif; white-space: pre;" transform="matrix(1 0 0 1 776 2007)">Modifications are automatically applied proportionally to all</text>
    <text style="stroke: none; fill: black; font-family: -apple-system, &quot;SF Pro Display&quot;, &quot;SF Pro Text&quot;, Helvetica, sans-serif; white-space: pre;" transform="matrix(1 0 0 1 776 2025)">scales and weights.</text>
    <g id="" transform="matrix(1 0 0 1 1289 1933)">
      <path d="M 2.83203 3.11523 L 4.375 4.6582 C 5.22461 5.48828 6.19141 5.41992 7.06055 4.46289 L 17.2754 -6.66016 C 17.7051 -6.36719 18.0957 -6.37695 18.5645 -6.47461 L 19.6094 -6.68945 L 20.3027 -5.99609 L 20.2539 -5.47852 C 20.1855 -4.95117 20.3516 -4.53125 20.8496 -4.0332 L 21.6602 -3.22266 C 22.168 -2.71484 22.8223 -2.68555 23.3008 -3.16406 L 26.5527 -6.41602 C 27.0312 -6.89453 27.0117 -7.54883 26.5039 -8.05664 L 25.6836 -8.87695 C 25.1855 -9.375 24.7754 -9.55078 24.2383 -9.47266 L 23.7109 -9.41406 L 23.0566 -10.0781 L 23.3398 -11.2207 C 23.4863 -11.7871 23.3398 -12.2559 22.7148 -12.8613 L 20.3027 -15.2539 C 16.7578 -18.7793 12.2266 -18.6719 9.11133 -15.5371 C 8.69141 -15.1074 8.64258 -14.5215 8.91602 -14.0918 C 9.15039 -13.7207 9.62891 -13.4961 10.2734 -13.6621 C 11.7871 -14.043 13.3008 -13.9258 14.7852 -12.9199 L 14.1602 -11.3379 C 13.9258 -10.752 13.9453 -10.2734 14.1797 -9.83398 L 3.01758 0.439453 C 2.08008 1.30859 1.97266 2.25586 2.83203 3.11523 Z M 10.6738 -15.1465 C 13.3398 -17.1387 16.6504 -16.8262 19.0527 -14.4141 L 21.6797 -11.8066 C 21.9141 -11.5723 21.9434 -11.3867 21.8848 -11.0938 L 21.5039 -9.53125 L 23.0762 -7.95898 L 24.043 -8.04688 C 24.3262 -8.07617 24.4141 -8.05664 24.6387 -7.83203 L 25.2637 -7.20703 L 22.5098 -4.46289 L 21.8848 -5.07812 C 21.6602 -5.30273 21.6406 -5.40039 21.6699 -5.68359 L 21.7578 -6.64062 L 20.1953 -8.20312 L 18.5742 -7.89062 C 18.291 -7.83203 18.1445 -7.83203 17.9102 -8.07617 L 15.7324 -10.2539 C 15.5078 -10.4883 15.4785 -10.625 15.6055 -10.9473 L 16.5527 -13.2227 C 14.9512 -14.7559 12.8418 -15.6055 10.8008 -14.9512 C 10.7129 -14.9219 10.6445 -14.9414 10.6152 -14.9805 C 10.5859 -15.0293 10.5859 -15.0781 10.6738 -15.1465 Z M 4.10156 2.41211 C 3.61328 1.91406 3.78906 1.61133 4.12109 1.30859 L 15.0781 -8.80859 L 16.3086 -7.57812 L 6.15234 3.34961 C 5.84961 3.68164 5.46875 3.7793 5.06836 3.37891 Z"/>
    </g>
    <text style="stroke: none; fill: black; font-family: -apple-system, &quot;SF Pro Display&quot;, &quot;SF Pro Text&quot;, Helvetica, sans-serif; font-weight: bold; white-space: pre;" transform="matrix(1 0 0 1 1289 1953)">Exporting</text>
    <text style="stroke: none; fill: black; font-family: -apple-system, &quot;SF Pro Display&quot;, &quot;SF Pro Text&quot;, Helvetica, sans-serif; white-space: pre;" transform="matrix(1 0 0 1 1289 1971)">Symbols should be outlined when exporting to ensure the</text>
    <text style="stroke: none; fill: black; font-family: -apple-system, &quot;SF Pro Display&quot;, &quot;SF Pro Text&quot;, Helvetica, sans-serif; white-space: pre;" transform="matrix(1 0 0 1 1289 1989)">design is preserved when submitting to Xcode.</text>
    <text id="template-version" style="stroke: none; fill: black; font-family: -apple-system, &quot;SF Pro Display&quot;, &quot;SF Pro Text&quot;, Helvetica, sans-serif; text-anchor: end; white-space: pre;" transform="matrix(1 0 0 1 3036 1933)">Template v.1.0</text>
    <text style="stroke: none; fill: black; font-family: -apple-system, &quot;SF Pro Display&quot;, &quot;SF Pro Text&quot;, Helvetica, sans-serif; text-anchor: end; white-space: pre;" transform="matrix(1 0 0 1 3036 1951)">Generated from square.and.arrow.up</text>
    <text style="stroke: none; fill: black; font-family: -apple-system, &quot;SF Pro Display&quot;, &quot;SF Pro Text&quot;, Helvetica, sans-serif; text-anchor: end; white-space: pre;" transform="matrix(1 0 0 1 3036 1969)">Typeset at 100 points</text>
    <text style="stroke: none; fill: black; font-family: -apple-system, &quot;SF Pro Display&quot;, &quot;SF Pro Text&quot;, Helvetica, sans-serif; white-space: pre;" transform="matrix(1 0 0 1 263 726)">Small</text>
    <text style="stroke: none; fill: black; font-family: -apple-system, &quot;SF Pro Display&quot;, &quot;SF Pro Text&quot;, Helvetica, sans-serif; white-space: pre;" transform="matrix(1 0 0 1 263 1156)">Medium</text>
    <text style="stroke: none; fill: black; font-family: -apple-system, &quot;SF Pro Display&quot;, &quot;SF Pro Text&quot;, Helvetica, sans-serif; white-space: pre;" transform="matrix(1 0 0 1 263 1586)">Large</text>
  </g>
  <g id="Guides">
    <g id="H-reference" style="fill:#27AAE1;stroke:none;" transform="matrix(1 0 0 1 339 696)">
      <path d="M 54.9316 0 L 57.666 0 L 30.5664 -70.459 L 28.0762 -70.459 L 0.976562 0 L 3.66211 0 L 12.9395 -24.4629 L 45.7031 -24.4629 Z M 29.1992 -67.0898 L 29.4434 -67.0898 L 44.8242 -26.709 L 13.8184 -26.709 Z"/>
    </g>
    <line id="Baseline-S" style="fill:none;stroke:#27AAE1;opacity:1;stroke-width:0.577;" x1="263" x2="3036" y1="696" y2="696"/>
    <line id="Capline-S" style="fill:none;stroke:#27AAE1;opacity:1;stroke-width:0.577;" x1="263" x2="3036" y1="625.541" y2="625.541"/>
    <g id="H-reference" style="fill:#27AAE1;stroke:none;" transform="matrix(1 0 0 1 339 1126)">
      <path d="M 54.9316 0 L 57.666 0 L 30.5664 -70.459 L 28.0762 -70.459 L 0.976562 0 L 3.66211 0 L 12.9395 -24.4629 L 45.7031 -24.4629 Z M 29.1992 -67.0898 L 29.4434 -67.0898 L 44.8242 -26.709 L 13.8184 -26.709 Z"/>
    </g>
    <line id="Baseline-M" style="fill:none;stroke:#27AAE1;opacity:1;stroke-width:0.577;" x1="263" x2="3036" y1="1126" y2="1126"/>
    <line id="Capline-M" style="fill:none;stroke:#27AAE1;opacity:1;stroke-width:0.577;" x1="263" x2="3036" y1="1055.54" y2="1055.54"/>
    <g id="H-reference" style="fill:#27AAE1;stroke:none;" transform="matrix(1 0 0 1 339 1556)">
      <path d="M 54.9316 0 L 57.666 0 L 30.5664 -70.459 L 28.0762 -70.459 L 0.976562 0 L 3.66211 0 L 12.9395 -24.4629 L 45.7031 -24.4629 Z M 29.1992 -67.0898 L 29.4434 -67.0898 L 44.8242 -26.709 L 13.8184 -26.709 Z"/>
    </g>
    <line id="Baseline-L" style="fill:none;stroke:#27AAE1;opacity:1;stroke-width:0.577;" x1="263" x2="3036" y1="1556" y2="1556"/>
    <line id="Capline-L" style="fill:none;stroke:#27AAE1;opacity:1;stroke-width:0.577;" x1="263" x2="3036" y1="1485.54" y2="1485.54"/>
    <rect height="119.336" id="left-margin" style="fill:#00AEEF;stroke:none;opacity:0.4;" width="12.4512" x="1394.06" y="1030.79"/>
    <rect height="119.336" id="right-margin" style="fill:#00AEEF;stroke:none;opacity:0.4;" width="12.4512" x="1493.18" y="1030.79"/>
  </g>
  <g id="Symbols">
    <g id="Regular-M">
      <path d="M 1479.889 1066.744 C 1479.728 1054.507 1469.941 1044.58 1457.706 1044.259 C 1449.826 1044.259 1442.559 1048.465 1438.634 1055.3 C 1436.767 1054.236 1434.659 1053.685 1432.512 1053.695 C 1425.385 1053.856 1419.673 1059.616 1419.563 1066.744 C 1411.875 1069.554 1406.806 1076.922 1406.916 1085.112 C 1406.635 1095.531 1414.865 1104.213 1425.285 1104.485 L 1473.967 1104.485 C 1484.586 1104.434 1493.078 1095.632 1492.737 1085.012 C 1492.777 1076.811 1487.627 1069.474 1479.889 1066.744 M 1473.967 1097.961 L 1425.285 1097.961 C 1418.319 1097.8 1412.818 1091.978 1413.039 1085.012 C 1412.908 1078.929 1417.124 1073.619 1423.077 1072.364 C 1423.889 1072.214 1424.612 1071.742 1425.084 1071.06 C 1425.375 1070.286 1425.375 1069.424 1425.084 1068.65 C 1425.053 1068.178 1425.053 1067.717 1425.084 1067.245 C 1425.024 1063.16 1428.436 1059.887 1432.512 1060.119 C 1434.459 1060.129 1436.306 1061.012 1437.53 1062.527 C 1438.213 1063.351 1439.287 1063.742 1440.341 1063.531 C 1441.395 1063.26 1442.228 1062.467 1442.549 1061.423 C 1444.728 1054.939 1450.77 1050.553 1457.606 1050.482 C 1466.74 1050.643 1473.987 1058.211 1473.766 1067.345 C 1473.796 1067.878 1473.796 1068.42 1473.766 1068.952 C 1473.576 1070.598 1474.659 1072.114 1476.275 1072.465 C 1482.207 1073.75 1486.404 1079.05 1486.312 1085.112 C 1486.483 1092.078 1480.932 1097.85 1473.967 1097.961 M 1429.801 1129.177 C 1429.801 1125.564 1429.801 1111.711 1429.801 1111.711 C 1429.832 1110.417 1429.079 1109.222 1427.894 1108.7 C 1426.729 1108.229 1425.395 1108.55 1424.582 1109.503 C 1424.582 1109.503 1421.37 1113.016 1418.258 1117.031 C 1416.652 1119.039 1415.047 1121.147 1413.741 1123.154 C 1412.386 1124.901 1411.523 1126.979 1411.232 1129.177 C 1411.212 1134.416 1415.237 1138.793 1420.466 1139.214 C 1425.736 1138.843 1429.811 1134.457 1429.801 1129.177 M 1417.355 1129.177 C 1419.041 1126.035 1421.099 1123.104 1423.478 1120.445 C 1423.478 1124.057 1423.478 1127.872 1423.478 1129.478 C 1423.478 1131.907 1420.848 1133.433 1418.74 1132.218 C 1417.756 1131.657 1417.154 1130.612 1417.154 1129.478 M 1452.587 1129.177 C 1452.587 1125.564 1452.587 1111.711 1452.587 1111.711 C 1452.616 1110.417 1451.864 1109.222 1450.679 1108.7 C 1449.495 1108.178 1448.1 1108.5 1447.267 1109.503 C 1447.267 1109.503 1444.054 1113.016 1440.943 1117.031 C 1439.337 1119.039 1437.731 1121.147 1436.426 1123.154 C 1435.061 1124.901 1434.198 1126.979 1433.916 1129.177 C 1433.916 1136.363 1441.696 1140.85 1447.919 1137.257 C 1450.81 1135.591 1452.587 1132.509 1452.587 1129.177 M 1440.06 1129.257 C 1441.736 1126.046 1443.874 1122.964 1446.263 1120.244 C 1446.263 1123.857 1446.263 1127.671 1446.263 1129.278 C 1446.263 1131.707 1443.633 1133.232 1441.525 1132.018 C 1440.542 1131.455 1440.09 1130.442 1440.09 1129.307 M 1473.465 1108.7 C 1472.28 1108.178 1470.885 1108.5 1470.052 1109.503 C 1470.052 1109.503 1466.84 1113.016 1463.728 1117.031 C 1462.113 1118.989 1460.607 1121.037 1459.211 1123.154 C 1457.846 1124.891 1456.973 1126.979 1456.702 1129.177 C 1455.959 1136.324 1463.226 1141.593 1469.791 1138.673 C 1473.474 1137.027 1475.693 1133.192 1475.271 1129.177 C 1475.271 1125.564 1475.271 1111.711 1475.271 1111.711 C 1475.302 1110.417 1474.549 1109.222 1473.365 1108.7 M 1469.148 1128.775 C 1469.148 1131.205 1466.519 1132.73 1464.411 1131.516 C 1463.428 1130.954 1462.825 1129.91 1462.825 1128.775 C 1464.501 1125.564 1466.559 1122.563 1468.948 1119.842 C 1468.948 1123.456 1469.159 1127.21 1469.159 1128.815" style=""/>
    </g>
  </g>
</svg>